<svg width="180" height="36" viewBox="0 0 180 36" fill="none" xmlns="http://www.w3.org/2000/svg">
<ellipse cx="14.0281" cy="18.029" rx="3.39833" ry="3.4058" fill="url(#paint0_linear)"/>
<path fillRule="evenodd" clipRule="evenodd" d="M6.7789 24.9173L6.79174 22.3517C6.79704 21.3141 6.24944 20.3525 5.35532 19.8294L5.34689 19.8243C4.45292 19.3005 3.34798 19.2948 2.44865 19.8092C1.54932 20.3237 0.992361 21.2801 0.987765 22.3179L0.947427 30.4595C0.937563 32.4295 1.9773 34.2549 3.67483 35.2481C5.37237 36.2413 7.46969 36.2512 9.17647 35.274L16.232 31.2383C17.1316 30.7243 17.6891 29.7682 17.6943 28.7304C17.6994 27.6926 17.1514 26.731 16.257 26.2081C15.3632 25.6849 14.2589 25.6793 13.3599 26.1934L11.1366 27.465C10.2331 27.9825 9.12267 27.9776 8.22377 27.4521C7.32488 26.9266 6.77407 25.9603 6.7789 24.9173Z" fill="url(#paint1_linear)"/>
<path fillRule="evenodd" clipRule="evenodd" d="M11.2289 8.56202L13.46 9.86782C14.3516 10.3895 15.4531 10.395 16.3497 9.88215C17.2463 9.36927 17.8018 8.41601 17.8069 7.38141C17.812 6.34682 17.2661 5.38805 16.3747 4.86625L9.34734 0.753339C7.65007 -0.240864 5.5524 -0.251696 3.845 0.724925C2.1376 1.70155 1.08006 3.51714 1.07099 5.48735L1.03065 13.643C1.0255 14.6776 1.57153 15.6364 2.46304 16.1582C3.35455 16.68 4.45609 16.6855 5.35273 16.1726L5.37767 16.1583C6.27385 15.6458 6.82932 14.6932 6.83498 13.6591L6.84782 11.0696C6.85243 10.0265 7.41209 9.06521 8.31587 8.54792C9.21965 8.03063 10.3302 8.03601 11.2289 8.56202Z" fill="url(#paint2_linear)"/>
<path fillRule="evenodd" clipRule="evenodd" d="M19.5236 11.7323C19.5185 12.7713 20.0669 13.7342 20.9622 14.2582L23.1625 15.5446C24.0612 16.0704 24.6117 17.0368 24.6066 18.0798C24.6014 19.1227 24.0414 20.0836 23.1375 20.6005L20.9248 21.8663C20.0243 22.3814 19.4664 23.3388 19.4612 24.3779C19.4561 25.417 20.0046 26.3799 20.8999 26.9038C21.7953 27.4278 22.9015 27.4333 23.802 26.9182L30.8513 22.8861C32.5591 21.9101 33.6173 20.0949 33.6271 18.1246C33.6368 16.1544 32.5967 14.3287 30.8986 13.3358L23.8893 9.23535C22.994 8.71109 21.8876 8.70542 20.987 9.2205C20.0865 9.73557 19.5286 10.6931 19.5236 11.7323Z" fill="url(#paint3_linear)"/>
<path d="M57.0307 34.1921C55.3213 34.1921 53.8749 33.1653 53.2175 31.6252L45.3281 11.7322C45.0652 11.4755 45.0652 11.0905 45.0652 10.8338C45.0652 10.3204 45.1967 9.93538 45.5911 9.55036C45.8541 9.16533 46.3801 9.03699 46.7745 9.03699H48.3524C48.6154 9.03699 49.0098 9.16533 49.2728 9.29367C49.5358 9.42201 49.7988 9.6787 49.7988 9.93538L57.1622 28.0316L64.657 9.93538C64.7885 9.6787 64.92 9.42201 65.183 9.29367C65.446 9.16533 65.709 9.03699 66.1034 9.03699H67.2868C67.8128 9.03699 68.3387 9.16533 68.8647 9.55036C69.2592 9.93538 69.3907 10.4488 69.3907 10.9621C69.3907 11.2188 69.3907 11.6038 69.2592 11.8605L60.9754 31.7536C60.3179 33.1653 58.74 34.1921 57.0307 34.1921Z" fill="black"/>
<ellipse cx="74.9393" cy="5.05839" rx="2.89275" ry="2.82353" fill="black"/>
<path d="M74.0187 34.3205H75.4651C76.517 34.3205 77.306 33.5504 77.306 32.652L77.1745 10.8339C77.1745 9.93546 76.3855 9.16541 75.4651 9.16541H74.1502C73.2298 9.16541 72.4409 9.93546 72.4409 10.8339L72.3094 32.5237C72.3094 33.5504 73.0983 34.3205 74.0187 34.3205Z" fill="black"/>
<path d="M84.7751 9.16541H86.09C86.4844 9.16541 87.0104 9.29375 87.2734 9.55043C87.6678 9.80712 87.7993 10.3205 87.7993 10.7055L87.9308 12.8873C89.1142 10.5772 91.744 9.42209 95.9516 9.42209C97.7925 9.42209 99.6333 9.93546 101.211 10.8339C102.789 11.8606 103.972 13.144 104.761 14.8125C105.55 16.3526 105.945 18.021 105.813 19.8178L105.419 32.652C105.419 33.1654 105.156 33.5504 104.893 33.8071C104.498 34.0638 104.104 34.3205 103.578 34.3205H102.263C101.737 34.3205 101.343 34.1921 100.948 33.8071C100.554 33.4221 100.422 33.0371 100.422 32.5237L100.685 20.0745C100.817 18.406 100.422 16.7376 99.3704 15.3258C98.3185 14.1708 96.8721 13.6574 95.2942 13.6574C94.2423 13.6574 93.3219 13.7857 92.27 13.9141C91.481 14.0424 90.6921 14.4274 90.0346 14.9408C89.2457 15.5825 88.5883 16.4809 88.1938 17.3793C87.6678 18.406 87.5363 19.4328 87.5363 20.5879L87.6678 32.3954C87.6678 32.9087 87.5363 33.2938 87.1419 33.6788C86.7474 34.0638 86.3529 34.1921 85.827 34.1921H84.3806C83.4602 34.1921 82.6712 33.4221 82.6712 32.5237L82.8027 10.8339C82.8027 10.3205 82.9342 9.93546 83.3287 9.55043C83.8547 9.42209 84.3806 9.16541 84.7751 9.16541Z" fill="black"/>
<ellipse cx="114.272" cy="5.24833" rx="2.89277" ry="2.82353" fill="black"/>
<path d="M113.351 34.5104H114.798C115.85 34.5104 116.639 33.7404 116.639 32.7136L116.507 11.0238C116.507 10.1254 115.718 9.35535 114.798 9.35535H113.483C112.562 9.35535 111.773 10.1254 111.773 11.0238L111.642 32.7136C111.642 33.7404 112.431 34.5104 113.351 34.5104Z" fill="black"/>
<ellipse cx="149.442" cy="5.41899" rx="2.89275" ry="2.82353" fill="black"/>
<path d="M148.522 34.6811H149.968C151.02 34.6811 151.809 33.911 151.809 33.0126L151.678 11.1945C151.678 10.2961 150.889 9.526 149.968 9.526H148.653C147.733 9.526 146.944 10.2961 146.944 11.1945L146.812 32.8843C146.812 33.911 147.601 34.6811 148.522 34.6811Z" fill="black"/>
<path d="M131.716 34.5771C130.007 34.5771 128.561 33.5504 127.903 32.0103L120.014 12.1172C119.882 11.7322 119.751 11.4755 119.751 11.0905C119.751 10.5771 119.882 10.1921 120.277 9.80707C120.54 9.42204 121.066 9.2937 121.46 9.2937H123.038C123.301 9.2937 123.696 9.42204 123.959 9.55039C124.222 9.67873 124.485 9.93541 124.485 10.1921L131.848 28.2884L139.343 10.1921C139.343 10.1921 139.474 9.93541 139.737 9.67873C140 9.55039 140.263 9.42204 140.658 9.42204H141.841C142.367 9.42204 142.893 9.55039 143.419 9.93541C143.813 10.3204 143.945 10.8338 143.945 11.3472C143.945 11.6039 143.945 11.9889 143.813 12.2456L135.661 32.0103C134.872 33.5504 133.426 34.5771 131.716 34.5771Z" fill="black"/>
<path d="M167.087 9.67878C168.797 9.67878 170.243 10.7055 170.9 12.2456L178.79 32.1387C178.921 32.5237 179.053 32.7804 179.053 33.1654C179.053 33.6788 178.921 34.0638 178.527 34.4488C178.264 34.8339 177.738 34.9622 177.343 34.9622H175.766C175.503 34.9622 175.108 34.8339 174.845 34.7055C174.582 34.5772 174.319 34.3205 174.319 34.0638L166.956 15.9675L159.461 33.8071C159.329 34.0638 159.198 34.3205 158.935 34.4488C158.672 34.5772 158.409 34.7055 158.014 34.7055H156.831C156.305 34.7055 155.779 34.5772 155.253 34.1921C154.859 33.8071 154.727 33.2938 154.727 32.7804C154.727 32.5237 154.727 32.1387 154.859 31.882L163.011 12.1173C163.8 10.5772 165.378 9.55043 167.087 9.67878Z" fill="black"/>
<defs>
<linearGradient id="paint0_linear" x1="10.6298" y1="14.6232" x2="10.6298" y2="21.4348" gradientUnits="userSpaceOnUse">
<stop stopColor="#E56C76"/>
<stop offset="1" stopColor="#D8528E"/>
</linearGradient>
<linearGradient id="paint1_linear" x1="0.947357" y1="19.4274" x2="0.947357" y2="36" gradientUnits="userSpaceOnUse">
<stop stopColor="#E56C76"/>
<stop offset="1" stopColor="#D8528E"/>
</linearGradient>
<linearGradient id="paint2_linear" x1="1.03061" y1="0" x2="1.03061" y2="16.5535" gradientUnits="userSpaceOnUse">
<stop stopColor="#E56C76"/>
<stop offset="1" stopColor="#D8528E"/>
</linearGradient>
<linearGradient id="paint3_linear" x1="19.4612" y1="8.83813" x2="19.4612" y2="27.3007" gradientUnits="userSpaceOnUse">
<stop stopColor="#E56C76"/>
<stop offset="1" stopColor="#D8528E"/>
</linearGradient>
</defs>
</svg>
